<svg width="64" height="64" viewBox="0 0 64 64" fill="none" xmlns="http://www.w3.org/2000/svg">
<g clip-path="url(#clip0_2294_4983)">
<path d="M58.4149 15.0339L32.9876 0.353636C32.1711 -0.117879 31.1636 -0.117879 30.3471 0.353636L4.92118 15.0339C4.2348 15.4302 3.81104 16.163 3.81104 16.9569V46.5597C3.81104 47.3523 4.2348 48.0864 4.92118 48.4827L30.3484 63.1629C31.1649 63.6345 32.1724 63.6345 32.9889 63.1629L58.416 48.4827C59.1024 48.0864 59.5262 47.3534 59.5262 46.5597V16.9569C59.5262 16.1643 59.1024 15.4302 58.416 15.0339H58.4149ZM56.8177 18.1435L32.2714 60.6586C32.1055 60.9451 31.6674 60.8281 31.6674 60.4962V32.6577C31.6674 32.1015 31.3701 31.5869 30.8879 31.3076L6.77979 17.389C6.4933 17.2231 6.61028 16.785 6.94213 16.785H56.0346C56.7317 16.785 57.1674 17.5406 56.8188 18.1447H56.8177V18.1435Z" fill="black"/>
</g>
<defs>
<clipPath id="clip0_2294_4983">
<rect width="63.5166" height="63.5166" fill="white"/>
</clipPath>
</defs>
</svg>
