<svg width="100" height="100" viewBox="0 0 100 100" fill="none" xmlns="http://www.w3.org/2000/svg">
<g clip-path="url(#clip0_2532_7094)">
<path d="M9.09277 75.0828L9.09512 93.6375C9.09512 94.4731 9.25971 95.3005 9.57951 96.0725C9.8993 96.8445 10.368 97.5459 10.9589 98.1367C11.5498 98.7276 12.2513 99.1962 13.0233 99.5159C13.7954 99.8356 14.6228 100 15.4584 100H33.4373C34.3553 99.9999 35.2624 99.8012 36.0964 99.4177C36.9304 99.0342 37.6717 98.4749 38.2693 97.7781L89.3764 38.1531C90.3642 36.9997 90.9073 35.5312 90.9076 34.0125V15.4578C90.9077 14.6222 90.7432 13.7947 90.4235 13.0226C90.1038 12.2506 89.6352 11.549 89.0444 10.9581C88.4536 10.3671 87.7522 9.8983 86.9802 9.57842C86.2082 9.25854 85.3808 9.09385 84.5451 9.09375H66.5623C65.6443 9.09388 64.7372 9.29251 63.9032 9.67602C63.0692 10.0595 62.3279 10.6188 61.7303 11.3156L10.6248 70.9406C9.63658 72.0945 9.09347 73.5636 9.09356 75.0828H9.09277Z" fill="#F0EB18"/>
<path d="M9.09277 77.311V93.6357C9.09277 97.1479 11.9424 99.9975 15.4545 99.9975H35.9112C36.2151 99.9975 36.5155 99.9761 36.8124 99.9334L94.5348 91.6909C96.0524 91.4746 97.4408 90.7177 98.4447 89.5593C99.4487 88.4009 100.001 86.919 99.999 85.3861V60.9008C99.999 57.3851 97.1494 54.5355 93.6336 54.5391L64.6673 54.5462C63.9834 54.5462 63.3031 54.653 62.6548 54.8703L13.442 71.277C12.1762 71.7013 11.0756 72.5123 10.2953 73.5955C9.51499 74.6788 9.09438 75.976 9.09277 77.311Z" fill="url(#paint0_linear_2532_7094)"/>
<path d="M0.00293069 6.36371V59.4378C0.00293069 61.981 1.52035 64.2821 3.85703 65.2866L62.4344 90.3917C63.2251 90.7301 64.08 90.9046 64.942 90.9046H93.6341C97.1498 90.9046 99.9994 88.055 99.9994 84.5428V56.4742C99.9994 55.2132 99.6254 53.9843 98.9272 52.9406L65.487 2.83376C64.9051 1.96345 64.1177 1.24984 63.1946 0.755953C62.2714 0.26207 61.2408 0.00311078 60.1939 0.00195412H6.36469C5.52912 0.00148589 4.70165 0.165724 3.9296 0.485266C3.15754 0.804809 2.45604 1.27339 1.8652 1.86423C1.27437 2.45507 0.80578 3.15656 0.486237 3.92862C0.166695 4.70067 0.00246245 5.52814 0.00293069 6.36371Z" fill="url(#paint1_linear_2532_7094)"/>
<path d="M81.2486 18.75H18.751V81.2477H81.2486V18.75Z" fill="black"/>
<path d="M33.184 43.6883L29.3996 26.5742H24.6621L30.3215 50.018H35.5129L39.5145 32.9875L43.4668 50.018H48.6738L54.3676 26.5742H49.7293L46.0613 43.6883L41.8418 26.5742H37.2199L33.184 43.6883ZM59.7215 49.4992C61.0387 50.1133 62.5457 50.4206 64.2426 50.4211C65.9405 50.4211 67.448 50.1081 68.7652 49.482C70.0819 48.857 71.1033 47.9977 71.8293 46.9039C72.5663 45.7977 72.9348 44.5526 72.9348 43.1687C72.9348 42.0401 72.6835 41.0018 72.1809 40.0539C71.68 39.0934 70.9568 38.2665 70.0715 37.6422C69.1783 36.9833 68.1566 36.537 67.0066 36.3031L63.0207 35.432C62.2952 35.2549 61.7202 34.9536 61.2957 34.5281C60.8827 34.1026 60.6762 33.5667 60.6762 32.9203C60.6762 32.3516 60.827 31.8549 61.1285 31.4305C61.4301 30.9945 61.8486 30.6596 62.384 30.4258C62.9309 30.1805 63.5616 30.0576 64.2762 30.057C64.9897 30.057 65.6204 30.1852 66.1684 30.4414C66.7262 30.6867 67.1559 31.0383 67.4574 31.4961C67.7585 31.9424 67.909 32.4508 67.909 33.0211H72.4809C72.4694 31.682 72.1121 30.4987 71.409 29.4711C70.7163 28.4315 69.7449 27.6221 68.4949 27.043C67.2449 26.4625 65.7996 26.1719 64.2246 26.1719C62.6507 26.1719 61.2441 26.4732 60.0051 27.0758C58.7665 27.6674 57.8009 28.499 57.1082 29.5703C56.4165 30.6318 56.0707 31.8318 56.0707 33.1703C56.0707 34.276 56.2994 35.2698 56.7566 36.1516C57.2155 37.0344 57.8751 37.7973 58.6824 38.3789C59.509 38.9711 60.4803 39.3898 61.5965 39.6352L65.7332 40.5562C66.5259 40.7469 67.1454 41.0875 67.5918 41.5781C68.0491 42.0698 68.2777 42.6896 68.2777 43.4375C68.2856 44.013 68.1097 44.576 67.7754 45.0445C67.452 45.5133 66.9889 45.8818 66.3863 46.15C65.7941 46.4078 65.1356 46.5344 64.309 46.5344C63.4829 46.5344 62.752 46.3893 62.116 46.0992C61.4801 45.8086 60.9832 45.4068 60.6254 44.8937C60.2686 44.3802 60.0902 43.7831 60.0902 43.1023H55.502C55.5238 44.5424 55.9033 45.8151 56.6402 46.9203C57.3882 48.0255 58.4152 48.8852 59.7215 49.4992ZM26.552 68.7477H51.552V73.4352H26.552V68.7477Z" fill="white"/>
</g>
<defs>
<linearGradient id="paint0_linear_2532_7094" x1="11.9099" y1="101.117" x2="95.699" y2="62.2702" gradientUnits="userSpaceOnUse">
<stop offset="0.22" stop-color="#F0EB18"/>
<stop offset="0.59" stop-color="#00C4F4"/>
</linearGradient>
<linearGradient id="paint1_linear_2532_7094" x1="93.7792" y1="93.3981" x2="2.05442" y2="1.6749" gradientUnits="userSpaceOnUse">
<stop offset="0.19" stop-color="#00C4F4"/>
<stop offset="0.83" stop-color="#007DFE"/>
</linearGradient>
<clipPath id="clip0_2532_7094">
<rect width="100" height="100" fill="white"/>
</clipPath>
</defs>
</svg>
